{"title":"The Big Lebowski (Joel Coen) [1998 DVD9]","uid":6856305,"size":3902455806,"categoryP":"video","categoryS":"movies","magnet":"?xt=urn:btih:709d93efc84dfc7e5c3e645e2033a0efd8e90bc7&amp;dn=The+Big+Lebowski+%28Joel+Coen%29+%5B1998+DVD9%5D&amp;tr=udp%3A%2F%2Ftracker.openbittorrent.com%3A80&amp;tr=udp%3A%2F%2Fopen.demonii.com%3A1337&amp;tr=udp%3A%2F%2Ftracker.coppersurfer.tk%3A6969&amp;tr=udp%3A%2F%2Fexodus.desync.com%3A6969","seeders":0,"leechers":0,"uploader":null,"files":1,"time":1322715075,"description":" &lt;a href=&quot;http://www.imdb.com/title/tt0118715/&quot; rel=&quot;nofollow&quot; target=&quot;_NEW&quot;&gt;http://www.imdb.com/title/tt0118715/&lt;/a&gt;\n\nGeneral\nFormat                           : Matroska\nFormat version                   : Version 2\nFile size                        : 3.63 GiB\nDuration                         : 1h 52mn\nOverall bit rate                 : 4 618 Kbps\nWriting application              : mkvmerge v5.1.0 ('And so it goes') built on Nov 28 2011 23:58:28\nWriting library                  : libebml v1.2.3 + libmatroska v1.3.0\n\nVideo\nID                               : 1\nFormat                           : MPEG Video\nFormat version                   : Version 2\nFormat profile                   : Main@Main\nFormat settings, BVOP            : No\nFormat settings, Matrix          : Default\nCodec ID                         : V_MPEG2\nCodec ID/Info                    : MPEG 1 or 2 Video\nDuration                         : 1h 52mn\nBit rate                         : 4 142 Kbps\nMaximum bit rate                 : 7 500 Kbps\nWidth                            : 720 pixels\nHeight                           : 576 pixels\nDisplay aspect ratio             : 4:3\nFrame rate                       : 25.000 fps\nStandard                         : PAL\nColor space                      : YUV\nChroma subsampling               : 4:2:0\nBit depth                        : 8 bits\nScan type                        : Interlaced\nScan order                       : Top Field First\nCompression mode                 : Lossy\nBits/(Pixel*Frame)               : 0.400\nStream size                      : 3.26 GiB (90%)\nDefault                          : Yes\nForced                           : No\nColor primaries                  : BT.470-2 System B, BT.470-2 System G\nTransfer characteristics         : BT.470-2 System B, BT.470-2 System G\nMatrix coefficients              : BT.470-2 System B, BT.470-2 System G\n\nAudio\nID                               : 2\nFormat                           : AC-3\nFormat/Info                      : Audio Coding 3\nMode extension                   : CM (complete main)\nMuxing mode                      : Header stripping\nCodec ID                         : A_AC3\nDuration                         : 1h 52mn\nBit rate mode                    : Constant\nBit rate                         : 384 Kbps\nChannel(s)                       : 6 channels\nChannel positions                : Front: L C R, Side: L R, LFE\nSampling rate                    : 48.0 KHz\nBit depth                        : 16 bits\nCompression mode                 : Lossy\nStream size                      : 309 MiB (8%)\nLanguage                         : English\nDefault                          : Yes\nForced                           : No","torrent":{"xt":"urn:btih:709d93efc84dfc7e5c3e645e2033a0efd8e90bc7","amp;dn":"The+Big+Lebowski+%28Joel+Coen%29+%5B1998+DVD9%5D","amp;tr":["udp%3A%2F%2Ftracker.openbittorrent.com%3A80","udp%3A%2F%2Fopen.demonii.com%3A1337","udp%3A%2F%2Ftracker.coppersurfer.tk%3A6969","udp%3A%2F%2Fexodus.desync.com%3A6969"],"infoHash":"709d93efc84dfc7e5c3e645e2033a0efd8e90bc7","infoHashBuffer":{"type":"Buffer","data":[112,157,147,239,200,77,252,126,92,62,100,94,32,51,160,239,216,233,11,199]},"announce":[],"urlList":[]}}